<?xml version="1.0" encoding="utf-8"?>
<!-- Generator: Adobe Illustrator 18.1.1, SVG Export Plug-In . SVG Version: 6.00 Build 0)  -->
<svg version="1.1" id="Layer_1" xmlns="http://www.w3.org/2000/svg" xmlns:xlink="http://www.w3.org/1999/xlink" x="0px" y="0px"
	 viewBox="0 0 194 27" enable-background="new 0 0 194 27" xml:space="preserve">
<g>
	<g>
		<path d="M6.5,11.6l-2.2,6H2.1l-2.1-6h2l1,3.7c0.1,0.4,0.2,0.8,0.2,1.1h0c0-0.3,0.1-0.6,0.2-1l1.1-3.7H6.5z"/>
		<path d="M12,17.6h-1.8v-0.9h0c-0.4,0.7-1,1-1.8,1c-0.6,0-1-0.2-1.4-0.5s-0.5-0.8-0.5-1.3c0-1.2,0.7-1.8,2.1-2l1.6-0.2
			c0-0.7-0.4-1-1.1-1c-0.7,0-1.4,0.2-2,0.6V12c0.3-0.1,0.6-0.3,1.1-0.4s0.9-0.2,1.2-0.2c1.7,0,2.6,0.9,2.6,2.6V17.6z M10.3,15.2
			v-0.4l-1.1,0.1c-0.6,0.1-0.9,0.3-0.9,0.8c0,0.2,0.1,0.4,0.2,0.5s0.3,0.2,0.6,0.2c0.3,0,0.6-0.1,0.8-0.4
			C10.2,15.8,10.3,15.5,10.3,15.2z"/>
		<path d="M19.3,17.6h-1.8v-3.3c0-0.9-0.3-1.4-1-1.4c-0.3,0-0.6,0.1-0.8,0.4s-0.3,0.6-0.3,0.9v3.4h-1.9v-6h1.9v0.9h0
			c0.4-0.7,1.1-1.1,1.9-1.1c1.3,0,2,0.8,2,2.5V17.6z"/>
		<path d="M30.3,17.6h-1.8v-3.4c0-0.9-0.3-1.3-1-1.3c-0.3,0-0.6,0.1-0.7,0.4s-0.3,0.6-0.3,1v3.4h-1.9v-3.5c0-0.8-0.3-1.3-0.9-1.3
			c-0.3,0-0.6,0.1-0.8,0.4s-0.3,0.6-0.3,1v3.3h-1.9v-6h1.9v0.9h0c0.2-0.3,0.5-0.6,0.8-0.8s0.7-0.3,1.1-0.3c0.8,0,1.4,0.4,1.7,1.1
			c0.5-0.7,1.1-1.1,2-1.1c1.3,0,2,0.8,2,2.4V17.6z"/>
		<path d="M34.6,17.8c-1,0-1.8-0.3-2.4-0.8s-0.9-1.3-0.9-2.3c0-1,0.3-1.8,0.9-2.3s1.4-0.8,2.4-0.8c1,0,1.8,0.3,2.3,0.8
			s0.8,1.3,0.8,2.2c0,1-0.3,1.8-0.9,2.4S35.6,17.8,34.6,17.8z M34.7,12.9c-0.4,0-0.8,0.2-1,0.5s-0.4,0.7-0.4,1.3
			c0,1.2,0.5,1.7,1.4,1.7c0.9,0,1.3-0.6,1.3-1.8C36,13.4,35.6,12.9,34.7,12.9z"/>
		<path d="M41.9,17.8c-1,0-1.8-0.3-2.4-0.8s-0.9-1.3-0.9-2.3c0-1,0.3-1.8,0.9-2.3s1.4-0.8,2.4-0.8c1,0,1.8,0.3,2.3,0.8
			s0.8,1.3,0.8,2.2c0,1-0.3,1.8-0.9,2.4S43,17.8,41.9,17.8z M42,12.9c-0.4,0-0.8,0.2-1,0.5s-0.4,0.7-0.4,1.3c0,1.2,0.5,1.7,1.4,1.7
			c0.9,0,1.3-0.6,1.3-1.8C43.3,13.4,42.9,12.9,42,12.9z"/>
		<path d="M52.4,17.6h-2.2l-1.9-3h0v3h-1.9V8.7h1.9v5.7h0l1.8-2.8h2.2l-2.2,2.8L52.4,17.6z"/>
	</g>
	<g>
		<path d="M102.1,12.2c0,0.7-0.1,1.3-0.3,2c-0.2,0.7-0.5,1.2-0.8,1.7c-0.4,0.6-0.8,1-1.3,1.3c-0.5,0.3-1,0.5-1.5,0.5
			c-0.4,0-0.8-0.1-1.1-0.3s-0.6-0.5-0.7-0.9c-0.2,0.1-0.3,0.3-0.4,0.4c-0.1,0.1-0.3,0.3-0.5,0.4c-0.2,0.1-0.4,0.2-0.6,0.3
			c-0.2,0.1-0.4,0.1-0.7,0.1c-0.3,0-0.6,0-0.8-0.1c-0.2-0.1-0.4-0.2-0.5-0.4c-0.1-0.2-0.2-0.3-0.3-0.5s-0.1-0.4-0.1-0.6
			c0-0.1,0-0.2,0-0.3c0-0.1,0-0.2,0.1-0.3l0.5-2c0.1-0.2,0.1-0.4,0.1-0.5c0-0.2,0-0.3,0-0.4c0-0.2,0-0.4-0.1-0.5
			c-0.1-0.1-0.2-0.1-0.5-0.1c-0.1,0-0.2,0-0.4,0.1s-0.3,0.1-0.3,0.1l0.1-0.4c0.3-0.1,0.6-0.3,0.9-0.3c0.3-0.1,0.5-0.1,0.6-0.1
			c0.3,0,0.6,0.1,0.7,0.2c0.2,0.2,0.2,0.4,0.2,0.7c0,0.1,0,0.2,0,0.3c0,0.1,0,0.3-0.1,0.4l-0.6,2.3c0,0.2-0.1,0.3-0.1,0.5
			s0,0.3,0,0.4c0,0.3,0.1,0.6,0.2,0.7s0.3,0.2,0.6,0.2c0.3,0,0.5-0.1,0.8-0.2c0.3-0.1,0.6-0.4,0.8-0.6l1.1-4.8l1.1-0.1l0.1,0.1
			l-0.9,3.9c0,0.1-0.1,0.3-0.1,0.5c0,0.2,0,0.3,0,0.3c0,0.2,0,0.4,0.1,0.6c0.1,0.1,0.2,0.2,0.3,0.3c0.1,0.1,0.2,0.1,0.3,0.1
			c0.1,0,0.2,0,0.3,0c0.3,0,0.6-0.1,0.9-0.3c0.3-0.2,0.6-0.4,0.8-0.7c0.2-0.3,0.4-0.7,0.6-1.1s0.2-0.8,0.2-1.3c0-0.3,0-0.4-0.1-0.6
			s-0.1-0.3-0.2-0.4c-0.1-0.1-0.2-0.2-0.2-0.3c-0.1-0.1-0.1-0.3-0.1-0.5c0-0.2,0.1-0.4,0.2-0.6c0.2-0.1,0.3-0.2,0.5-0.2
			c0.2,0,0.4,0.1,0.6,0.3C102,11.5,102.1,11.8,102.1,12.2z"/>
		<path d="M108.4,12.4c0,0.4-0.1,0.8-0.4,1.2c-0.3,0.3-0.7,0.6-1.2,0.8c-0.4,0.1-0.8,0.3-1.2,0.3c-0.4,0.1-0.8,0.2-1.3,0.2
			c0,0.7,0.1,1.2,0.4,1.5c0.2,0.4,0.6,0.5,1.1,0.5c0.4,0,0.8-0.1,1.1-0.3s0.6-0.5,1-0.9l0.4,0.3c-0.3,0.5-0.8,0.9-1.3,1.2
			s-1,0.5-1.6,0.5c-0.7,0-1.3-0.2-1.7-0.6c-0.4-0.4-0.6-1-0.6-1.8c0-0.5,0.1-1,0.3-1.5c0.2-0.5,0.4-0.9,0.7-1.3
			c0.3-0.4,0.7-0.7,1.2-1c0.5-0.2,1-0.4,1.5-0.4c0.6,0,1.1,0.1,1.4,0.4C108.2,11.7,108.4,12,108.4,12.4z M107.2,12.2
			c0-0.2,0-0.3-0.1-0.4s-0.1-0.2-0.2-0.2c-0.1-0.1-0.2-0.1-0.2-0.1s-0.2,0-0.3,0c-0.5,0-1,0.3-1.4,0.8c-0.4,0.6-0.7,1.3-0.8,2.1
			c0.3,0,0.6-0.1,1-0.2c0.4-0.1,0.7-0.2,0.9-0.3c0.4-0.2,0.6-0.4,0.8-0.7C107.1,12.9,107.2,12.6,107.2,12.2z"/>
		<path d="M115.4,13.5c0,0.6-0.1,1.1-0.3,1.6s-0.5,1-0.8,1.3c-0.3,0.4-0.7,0.7-1.2,0.9s-0.9,0.3-1.4,0.3c-0.4,0-0.7,0-1-0.1
			c-0.3-0.1-0.5-0.1-0.7-0.3c-0.2-0.1-0.4-0.2-0.5-0.4s-0.2-0.3-0.4-0.5l1.6-7.2c0-0.1,0-0.2,0.1-0.3c0-0.1,0-0.1,0-0.2
			c0-0.2,0-0.3-0.1-0.4s-0.1-0.1-0.2-0.2c-0.1,0-0.2-0.1-0.3-0.1s-0.3,0-0.4,0l0.1-0.4l2.3-0.1l0.1,0.1l-1,4.2h0
			c0.4-0.3,0.7-0.6,1-0.7c0.3-0.1,0.6-0.2,0.8-0.2c0.6,0,1.2,0.2,1.5,0.7S115.4,12.7,115.4,13.5z M114.1,13.5c0-0.2,0-0.5-0.1-0.7
			c0-0.2-0.1-0.4-0.2-0.6c-0.1-0.2-0.2-0.3-0.4-0.4s-0.4-0.1-0.6-0.1c-0.1,0-0.3,0-0.4,0.1s-0.3,0.1-0.4,0.2
			c-0.1,0.1-0.2,0.2-0.4,0.3s-0.2,0.2-0.3,0.3l-0.8,3.8c0,0.1,0.1,0.2,0.1,0.3c0.1,0.1,0.1,0.2,0.2,0.3c0.1,0.1,0.3,0.2,0.4,0.2
			c0.1,0.1,0.3,0.1,0.5,0.1c0.3,0,0.7-0.1,0.9-0.3c0.3-0.2,0.5-0.5,0.8-0.8c0.2-0.4,0.4-0.8,0.5-1.2C114,14.4,114.1,14,114.1,13.5z"
			/>
		<path d="M123.4,16.6L123.4,16.6c-0.1,0.1-0.3,0.2-0.4,0.3c-0.1,0.1-0.3,0.2-0.5,0.3c-0.2,0.1-0.4,0.2-0.6,0.3
			c-0.2,0.1-0.4,0.1-0.6,0.1c-0.6,0-1.1-0.2-1.4-0.7c-0.3-0.4-0.5-1-0.5-1.8c0-0.5,0.1-1,0.3-1.5s0.4-0.9,0.8-1.3
			c0.3-0.4,0.7-0.7,1.1-0.9c0.4-0.2,0.9-0.3,1.4-0.3c0.3,0,0.6,0,0.9,0.1s0.5,0.2,0.7,0.3l0.5-2.2c0-0.1,0-0.2,0.1-0.3
			c0-0.1,0-0.1,0-0.2c0-0.2,0-0.3-0.1-0.3c-0.1-0.1-0.1-0.1-0.3-0.2c-0.1,0-0.2-0.1-0.4-0.1s-0.3,0-0.5,0l0.1-0.4l2.6-0.1l0.1,0.1
			l-1.8,7.6c0,0.1-0.1,0.3-0.1,0.5c0,0.2-0.1,0.3-0.1,0.4c0,0.2,0.1,0.4,0.2,0.5c0.1,0.1,0.3,0.1,0.5,0.1c0.1,0,0.2,0,0.3,0
			c0.1,0,0.3-0.1,0.3-0.1l-0.1,0.4c-0.4,0.2-0.7,0.3-0.9,0.3c-0.2,0.1-0.4,0.1-0.6,0.1c-0.3,0-0.5-0.1-0.7-0.2
			S123.4,16.9,123.4,16.6z M124.3,12.5c0-0.1,0-0.2-0.1-0.4c-0.1-0.1-0.1-0.2-0.2-0.3c-0.1-0.1-0.2-0.2-0.4-0.3s-0.3-0.1-0.5-0.1
			c-0.3,0-0.6,0.1-0.9,0.3c-0.3,0.2-0.5,0.5-0.8,0.8c-0.2,0.3-0.4,0.7-0.5,1.2s-0.2,0.9-0.2,1.4c0,0.3,0,0.5,0,0.7
			c0,0.2,0.1,0.4,0.2,0.6c0.1,0.2,0.2,0.3,0.3,0.4c0.1,0.1,0.3,0.1,0.6,0.1c0.2,0,0.5-0.1,0.8-0.2c0.3-0.1,0.6-0.4,0.9-0.7
			L124.3,12.5z"/>
		<path d="M132.3,12.4c0,0.4-0.1,0.8-0.4,1.2c-0.3,0.3-0.7,0.6-1.2,0.8c-0.4,0.1-0.8,0.3-1.2,0.3c-0.4,0.1-0.8,0.2-1.3,0.2
			c0,0.7,0.1,1.2,0.4,1.5c0.2,0.4,0.6,0.5,1.1,0.5c0.4,0,0.8-0.1,1.1-0.3s0.6-0.5,1-0.9l0.4,0.3c-0.3,0.5-0.8,0.9-1.3,1.2
			s-1,0.5-1.6,0.5c-0.7,0-1.3-0.2-1.7-0.6c-0.4-0.4-0.6-1-0.6-1.8c0-0.5,0.1-1,0.3-1.5c0.2-0.5,0.4-0.9,0.7-1.3
			c0.3-0.4,0.7-0.7,1.2-1c0.5-0.2,1-0.4,1.5-0.4c0.6,0,1.1,0.1,1.4,0.4C132.2,11.7,132.3,12,132.3,12.4z M131.2,12.2
			c0-0.2,0-0.3-0.1-0.4s-0.1-0.2-0.2-0.2c-0.1-0.1-0.2-0.1-0.2-0.1s-0.2,0-0.3,0c-0.5,0-1,0.3-1.4,0.8c-0.4,0.6-0.7,1.3-0.8,2.1
			c0.3,0,0.6-0.1,1-0.2c0.4-0.1,0.7-0.2,0.9-0.3c0.4-0.2,0.6-0.4,0.8-0.7C131.1,12.9,131.2,12.6,131.2,12.2z"/>
		<path d="M139.2,12.2c0,0.6-0.1,1.3-0.3,2c-0.2,0.7-0.5,1.2-0.8,1.7c-0.3,0.5-0.8,0.9-1.2,1.2c-0.5,0.3-1,0.5-1.6,0.5
			c-0.6,0-1-0.2-1.3-0.5c-0.3-0.3-0.5-0.7-0.5-1.2c0-0.1,0-0.2,0-0.3c0-0.1,0-0.2,0-0.2l0.6-2c0-0.2,0.1-0.3,0.1-0.5
			c0-0.2,0-0.3,0-0.4c0-0.2,0-0.4-0.1-0.5c-0.1-0.1-0.2-0.1-0.5-0.1c-0.1,0-0.2,0-0.4,0.1s-0.3,0.1-0.3,0.1l0.1-0.4
			c0.3-0.1,0.6-0.3,0.9-0.3c0.3-0.1,0.5-0.1,0.6-0.1c0.3,0,0.6,0.1,0.8,0.2c0.2,0.2,0.2,0.4,0.2,0.7c0,0.1,0,0.2,0,0.3
			c0,0.1,0,0.3-0.1,0.4l-0.6,2.4c0,0.2-0.1,0.3-0.1,0.5s0,0.2,0,0.3c0,0.2,0,0.4,0.1,0.5c0.1,0.1,0.2,0.2,0.3,0.3
			c0.1,0.1,0.2,0.1,0.3,0.2c0.1,0,0.2,0,0.4,0c0.3,0,0.6-0.1,0.9-0.3c0.3-0.2,0.6-0.4,0.8-0.7c0.2-0.3,0.5-0.7,0.6-1.1
			s0.2-0.8,0.2-1.3c0-0.3,0-0.4-0.1-0.6s-0.1-0.3-0.2-0.4c-0.1-0.1-0.2-0.2-0.2-0.3c-0.1-0.1-0.1-0.3-0.1-0.5c0-0.2,0.1-0.4,0.2-0.6
			c0.2-0.1,0.3-0.2,0.5-0.2c0.2,0,0.4,0.1,0.6,0.3C139.1,11.5,139.2,11.8,139.2,12.2z"/>
		<path d="M145.4,12.4c0,0.4-0.1,0.8-0.4,1.2c-0.3,0.3-0.7,0.6-1.2,0.8c-0.4,0.1-0.8,0.3-1.2,0.3c-0.4,0.1-0.8,0.2-1.3,0.2
			c0,0.7,0.1,1.2,0.4,1.5c0.2,0.4,0.6,0.5,1.1,0.5c0.4,0,0.8-0.1,1.1-0.3s0.6-0.5,1-0.9l0.4,0.3c-0.3,0.5-0.8,0.9-1.3,1.2
			s-1,0.5-1.6,0.5c-0.7,0-1.3-0.2-1.7-0.6c-0.4-0.4-0.6-1-0.6-1.8c0-0.5,0.1-1,0.3-1.5c0.2-0.5,0.4-0.9,0.7-1.3
			c0.3-0.4,0.7-0.7,1.2-1c0.5-0.2,1-0.4,1.5-0.4c0.6,0,1.1,0.1,1.4,0.4C145.3,11.7,145.4,12,145.4,12.4z M144.3,12.2
			c0-0.2,0-0.3-0.1-0.4s-0.1-0.2-0.2-0.2c-0.1-0.1-0.2-0.1-0.2-0.1s-0.2,0-0.3,0c-0.5,0-1,0.3-1.4,0.8c-0.4,0.6-0.7,1.3-0.8,2.1
			c0.3,0,0.6-0.1,1-0.2c0.4-0.1,0.7-0.2,0.9-0.3c0.4-0.2,0.6-0.4,0.8-0.7C144.2,12.9,144.3,12.6,144.3,12.2z"/>
		<path d="M149.5,7.7l-1.8,7.6c0,0.2-0.1,0.3-0.1,0.5s-0.1,0.3-0.1,0.4c0,0.2,0.1,0.4,0.2,0.5s0.3,0.1,0.5,0.1c0.1,0,0.2,0,0.4,0
			c0.2,0,0.3,0,0.4-0.1l-0.1,0.4c-0.4,0.2-0.7,0.3-0.9,0.3s-0.4,0.1-0.7,0.1c-0.3,0-0.6-0.1-0.8-0.3c-0.2-0.2-0.3-0.4-0.3-0.7
			c0-0.1,0-0.2,0-0.3c0-0.1,0-0.2,0.1-0.4l1.5-6.7c0-0.1,0-0.2,0.1-0.3c0-0.1,0-0.1,0-0.2c0-0.2,0-0.3-0.1-0.4s-0.1-0.1-0.2-0.2
			c-0.1,0-0.2-0.1-0.3-0.1c-0.1,0-0.3,0-0.4,0l0.1-0.4L149.5,7.7L149.5,7.7z"/>
		<path d="M156,13.5c0,0.5-0.1,1-0.3,1.5s-0.4,0.9-0.7,1.3c-0.3,0.4-0.7,0.7-1.2,0.9c-0.5,0.2-1,0.4-1.6,0.4c-0.7,0-1.3-0.2-1.7-0.7
			c-0.4-0.5-0.7-1.1-0.7-1.8c0-0.6,0.1-1.1,0.3-1.6s0.4-0.9,0.7-1.3c0.3-0.4,0.7-0.7,1.2-0.9c0.5-0.2,1-0.3,1.5-0.3
			c0.8,0,1.3,0.2,1.8,0.7S156,12.8,156,13.5z M154.7,13.3c0-0.6-0.1-1.1-0.3-1.4c-0.2-0.3-0.5-0.5-0.9-0.5c-0.4,0-0.7,0.1-1,0.3
			c-0.3,0.2-0.6,0.6-0.8,1.1c-0.2,0.4-0.3,0.8-0.4,1.2c-0.1,0.5-0.1,0.9-0.1,1.2c0,0.6,0.1,1.1,0.3,1.4c0.2,0.3,0.5,0.5,0.9,0.5
			c0.4,0,0.7-0.1,1-0.4c0.3-0.2,0.5-0.5,0.7-0.9c0.2-0.4,0.3-0.8,0.4-1.2C154.6,14.2,154.7,13.8,154.7,13.3z"/>
		<path d="M163.5,13.5c0,0.6-0.1,1.1-0.3,1.6c-0.2,0.5-0.5,0.9-0.8,1.3c-0.4,0.4-0.8,0.7-1.2,0.9c-0.4,0.2-0.9,0.3-1.3,0.3
			c-0.4,0-0.7,0-0.9-0.1s-0.4-0.2-0.6-0.3l-0.4,1.7c0,0.1,0,0.2-0.1,0.3c0,0.1,0,0.2,0,0.2c0,0.1,0,0.2,0.1,0.3s0.2,0.1,0.3,0.1
			c0.1,0,0.2,0.1,0.4,0.1c0.1,0,0.2,0,0.4,0l-0.1,0.4h-3.5l0.1-0.4c0.1,0,0.3,0,0.4,0c0.1,0,0.2,0,0.3-0.1c0.1,0,0.2-0.1,0.3-0.2
			c0.1-0.1,0.1-0.2,0.2-0.4l1.3-5.8c0-0.2,0.1-0.3,0.1-0.5c0-0.2,0-0.3,0-0.4c0-0.2,0-0.4-0.1-0.5c-0.1-0.1-0.2-0.1-0.5-0.1
			c-0.1,0-0.2,0-0.4,0.1c-0.1,0-0.3,0.1-0.3,0.1l0.1-0.4c0.3-0.1,0.6-0.3,0.9-0.3c0.3-0.1,0.5-0.1,0.7-0.1c0.3,0,0.5,0.1,0.7,0.2
			s0.2,0.4,0.3,0.6h0.1c0.3-0.3,0.6-0.5,0.9-0.7c0.3-0.2,0.7-0.3,1-0.3c0.6,0,1.1,0.2,1.5,0.7S163.5,12.7,163.5,13.5z M161.5,16.1
			c0.2-0.3,0.4-0.7,0.5-1.2s0.2-0.9,0.2-1.4c0-0.2,0-0.5-0.1-0.7c0-0.2-0.1-0.4-0.2-0.6c-0.1-0.2-0.2-0.3-0.4-0.4
			c-0.2-0.1-0.4-0.1-0.6-0.1c-0.2,0-0.4,0.1-0.6,0.2s-0.5,0.3-0.9,0.7l-0.8,3.6c0,0.2,0.2,0.5,0.4,0.7c0.2,0.2,0.5,0.3,0.8,0.3
			c0.3,0,0.6-0.1,0.9-0.3C161,16.7,161.3,16.4,161.5,16.1z"/>
		<path d="M175,16.7l-0.1,0.4c-0.4,0.2-0.7,0.3-0.9,0.3c-0.2,0.1-0.4,0.1-0.6,0.1c-0.3,0-0.6-0.1-0.8-0.3c-0.2-0.2-0.3-0.4-0.3-0.7
			c0-0.1,0-0.2,0-0.3s0-0.2,0.1-0.4l0.6-2.4c0-0.2,0.1-0.3,0.1-0.5s0-0.3,0-0.4c0-0.3-0.1-0.5-0.2-0.7c-0.1-0.2-0.3-0.2-0.6-0.2
			c-0.3,0-0.6,0.1-0.8,0.2c-0.3,0.1-0.6,0.4-0.9,0.7l-1.1,4.7h-1.2l1-4.2c0-0.1,0-0.2,0.1-0.3c0-0.1,0-0.2,0-0.2
			c0-0.3-0.1-0.5-0.2-0.6s-0.3-0.2-0.6-0.2c-0.2,0-0.5,0.1-0.8,0.2c-0.3,0.1-0.6,0.4-1,0.8l-1.1,4.7h-1.2l1-4.1
			c0-0.1,0.1-0.3,0.1-0.5c0-0.2,0-0.3,0-0.4c0-0.2,0-0.4-0.1-0.5c-0.1-0.1-0.2-0.1-0.5-0.1c-0.1,0-0.2,0-0.4,0.1s-0.3,0.1-0.3,0.1
			l0.1-0.4c0.3-0.1,0.6-0.3,0.9-0.3c0.3-0.1,0.5-0.1,0.7-0.1c0.3,0,0.6,0.1,0.7,0.3c0.1,0.2,0.2,0.4,0.2,0.8h0
			c0.5-0.4,0.9-0.7,1.2-0.8c0.3-0.2,0.7-0.3,1.1-0.3c0.4,0,0.7,0.1,0.9,0.3s0.4,0.5,0.4,0.8h0c0.5-0.4,0.9-0.7,1.2-0.9
			c0.4-0.2,0.8-0.3,1.2-0.3c0.4,0,0.7,0.1,0.9,0.4c0.2,0.2,0.3,0.5,0.3,0.9c0,0.1,0,0.2,0,0.4s-0.1,0.4-0.1,0.6l-0.5,2
			c0,0.1-0.1,0.3-0.1,0.5c0,0.2-0.1,0.3-0.1,0.4c0,0.2,0.1,0.4,0.2,0.5s0.3,0.1,0.5,0.1c0.1,0,0.2,0,0.3,0S174.9,16.8,175,16.7z"/>
		<path d="M181.2,12.4c0,0.4-0.1,0.8-0.4,1.2c-0.3,0.3-0.7,0.6-1.2,0.8c-0.4,0.1-0.8,0.3-1.2,0.3c-0.4,0.1-0.8,0.2-1.3,0.2
			c0,0.7,0.1,1.2,0.4,1.5c0.2,0.4,0.6,0.5,1.1,0.5c0.4,0,0.8-0.1,1.1-0.3c0.3-0.2,0.6-0.5,1-0.9l0.4,0.3c-0.3,0.5-0.8,0.9-1.3,1.2
			s-1,0.5-1.6,0.5c-0.8,0-1.3-0.2-1.7-0.6s-0.6-1-0.6-1.8c0-0.5,0.1-1,0.3-1.5c0.2-0.5,0.4-0.9,0.7-1.3c0.3-0.4,0.7-0.7,1.2-1
			c0.5-0.2,1-0.4,1.5-0.4c0.6,0,1.1,0.1,1.4,0.4C181.1,11.7,181.2,12,181.2,12.4z M180,12.2c0-0.2,0-0.3-0.1-0.4
			c0-0.1-0.1-0.2-0.2-0.2c-0.1-0.1-0.2-0.1-0.2-0.1c-0.1,0-0.2,0-0.3,0c-0.5,0-1,0.3-1.4,0.8c-0.4,0.6-0.7,1.3-0.8,2.1
			c0.3,0,0.6-0.1,1-0.2s0.7-0.2,0.9-0.3c0.4-0.2,0.6-0.4,0.8-0.7C180,12.9,180,12.6,180,12.2z"/>
		<path d="M188.8,16.7l-0.1,0.4c-0.4,0.2-0.7,0.3-0.9,0.3c-0.2,0.1-0.4,0.1-0.6,0.1c-0.3,0-0.6-0.1-0.8-0.3s-0.3-0.4-0.3-0.7
			c0-0.1,0-0.2,0-0.3s0-0.2,0.1-0.4l0.6-2.4c0-0.2,0.1-0.3,0.1-0.5s0-0.3,0-0.4c0-0.3-0.1-0.5-0.2-0.7c-0.1-0.2-0.3-0.2-0.6-0.2
			c-0.3,0-0.5,0.1-0.9,0.3c-0.3,0.2-0.6,0.4-0.9,0.7l-1.1,4.7h-1.2l1-4.1c0-0.1,0.1-0.2,0.1-0.4s0.1-0.3,0.1-0.5
			c0-0.2,0-0.4-0.1-0.5s-0.2-0.1-0.5-0.1c-0.1,0-0.2,0-0.4,0c-0.1,0-0.3,0.1-0.3,0.1l0.1-0.4c0.3-0.1,0.6-0.3,0.9-0.3
			s0.5-0.1,0.7-0.1c0.3,0,0.6,0.1,0.7,0.3s0.2,0.4,0.2,0.8h0c0.5-0.4,0.9-0.6,1.2-0.8s0.7-0.3,1.2-0.3c0.4,0,0.7,0.1,0.9,0.4
			c0.2,0.2,0.3,0.5,0.3,0.9c0,0.1,0,0.2,0,0.4c0,0.2-0.1,0.4-0.1,0.6l-0.5,2c0,0.1-0.1,0.3-0.1,0.5s-0.1,0.3-0.1,0.4
			c0,0.2,0.1,0.4,0.2,0.5s0.3,0.1,0.5,0.1c0.1,0,0.2,0,0.3,0C188.6,16.8,188.7,16.7,188.8,16.7z"/>
		<path d="M191.1,17.6c-0.4,0-0.7-0.1-0.9-0.2c-0.2-0.2-0.3-0.4-0.3-0.7c0-0.1,0-0.2,0-0.3c0-0.1,0-0.2,0.1-0.3l1-4.2h-1.1l0.1-0.6
			h1.2l0.4-1.9h1.1l-0.4,1.9h1.8l-0.1,0.6h-1.8l-0.8,3.5c0,0.2-0.1,0.3-0.1,0.5c0,0.2,0,0.3,0,0.4c0,0.2,0.1,0.4,0.2,0.5
			c0.1,0.1,0.3,0.2,0.6,0.2c0.1,0,0.3,0,0.5,0c0.2,0,0.4-0.1,0.5-0.1l-0.1,0.5c-0.3,0.1-0.6,0.2-0.8,0.3
			C191.7,17.5,191.4,17.6,191.1,17.6z"/>
	</g>
	<g>
		<g>
			<g>
				<path d="M72.2,27c-7.4,0-13.5-6.1-13.5-13.5S64.8,0,72.2,0c7.4,0,13.5,6.1,13.5,13.5S79.7,27,72.2,27z M72.2,2.2
					c-6.2,0-11.3,5.1-11.3,11.3S66,24.8,72.2,24.8c6.2,0,11.3-5.1,11.3-11.3S78.4,2.2,72.2,2.2z"/>
			</g>
		</g>
		<g>
			<g>
				<path d="M66.3,15.5c0.6-0.4,1.1-1,1.4-1.6c0.3-0.5,0.4-1,0.4-1.5c0-0.2-0.1-0.4-0.2-0.6c-0.1-0.2-0.3-0.4-0.5-0.6
					c0-0.3,0.1-0.5,0.4-0.7c0.2-0.2,0.5-0.3,0.7-0.3c0.3,0,0.6,0.1,0.9,0.4c0.2,0.2,0.4,0.6,0.4,1.1c0,0.4-0.1,0.8-0.4,1.4
					s-0.7,1.1-1.1,1.6c-0.4,0.5-0.9,1-1.4,1.4c-0.5,0.4-0.9,0.8-1.3,1.1c-0.4,0.3-0.7,0.4-0.9,0.4c-0.2-0.4-0.3-1-0.4-1.9
					S64,13.6,64,12.6v-0.7c0-0.2-0.1-0.4-0.2-0.4c-0.1,0-0.3,0.1-0.5,0.4c-0.2,0.2-0.4,0.4-0.4,0.5c0,0-0.1-0.1-0.1-0.2
					c-0.1-0.1-0.1-0.2-0.1-0.3c0.2-0.3,0.6-0.7,1.1-1.2c0.5-0.5,1-0.7,1.4-0.7c0.3,0,0.5,0.1,0.6,0.2c0.1,0.2,0.2,0.4,0.2,0.7v0.5
					v0.3c0,0.8,0,1.6,0.1,2.4C66.1,15,66.2,15.4,66.3,15.5z"/>
			</g>
			<g>
				<path d="M78.2,15.3l0.4-1.9c0-0.1,0.1-0.3,0.1-0.6c0.1-0.3,0.1-0.5,0.1-0.6c0-0.1,0-0.2-0.1-0.2c0-0.1-0.1-0.1-0.2-0.1
					c-0.2,0-0.4,0.2-0.7,0.6c-0.3,0.4-0.6,0.9-0.9,1.5c-0.3,0.6-0.5,1.3-0.6,1.9l-0.3,1.5c-0.2,0.1-0.5,0.1-0.9,0.1
					c-0.4,0-0.7,0-0.9-0.1l0.8-3.9c0-0.1,0.1-0.3,0.1-0.6c0.1-0.3,0.1-0.5,0.1-0.6c0-0.1,0-0.2-0.1-0.2c0-0.1-0.1-0.1-0.2-0.1
					c-0.2,0-0.4,0.2-0.7,0.6c-0.3,0.4-0.6,0.9-0.9,1.5c-0.3,0.6-0.5,1.3-0.6,1.9l-0.3,1.5c-0.2,0.1-0.5,0.1-0.9,0.1
					c-0.4,0-0.7,0-0.9-0.1l0.9-5c0.1-0.2,0.1-0.4,0.1-0.5c0-0.1,0-0.2-0.1-0.2c0-0.1-0.1-0.1-0.2-0.1c-0.1,0-0.4,0.1-0.6,0.4
					c-0.3,0.3-0.4,0.5-0.5,0.6c0,0-0.1-0.1-0.1-0.2c-0.1-0.1-0.1-0.2-0.1-0.3c0.2-0.3,0.5-0.7,1.1-1.2c0.5-0.5,1-0.7,1.4-0.7
					c0.3,0,0.6,0.1,0.8,0.3c0.2,0.2,0.3,0.5,0.3,0.8c0,0.2,0,0.5-0.1,1l-0.2,0.7c0.2-0.4,0.4-0.8,0.7-1.2c0.3-0.4,0.7-0.8,1-1.1
					c0.4-0.3,0.7-0.5,0.9-0.5c0.4,0,0.7,0.1,0.9,0.3c0.2,0.2,0.3,0.6,0.3,1.1c0,0.2,0,0.6-0.1,1c0.3-0.6,0.7-1.1,1.2-1.7
					c0.5-0.5,0.9-0.8,1.3-0.8c0.4,0,0.7,0.1,0.9,0.3c0.2,0.2,0.3,0.6,0.3,1.1c0,0.1,0,0.3,0,0.5c0,0.2-0.1,0.4-0.1,0.6
					c0,0.2-0.1,0.4-0.1,0.6c0,0.2-0.1,0.4-0.1,0.4c0,0.1-0.1,0.4-0.2,0.8c-0.1,0.4-0.2,0.7-0.2,0.9c0,0.2-0.1,0.4-0.1,0.5
					c0,0.1,0,0.2,0.1,0.2c0,0.1,0.1,0.1,0.2,0.1c0.1,0,0.4-0.1,0.6-0.4c0.3-0.3,0.4-0.5,0.5-0.6c0,0,0.1,0.1,0.1,0.2
					s0.1,0.2,0.1,0.3c-0.1,0.2-0.3,0.4-0.6,0.7c-0.3,0.3-0.6,0.6-1,0.8c-0.4,0.3-0.7,0.4-1,0.4c-0.3,0-0.5-0.1-0.7-0.3
					s-0.3-0.5-0.3-0.9C78.1,16,78.1,15.7,78.2,15.3z"/>
			</g>
		</g>
	</g>
</g>
</svg>
